<?xml version="1.0" encoding="UTF-8"?>
<svg version="1.1" xmlns="http://www.w3.org/2000/svg" width="1200" height="1200">
<path d="M0 0 C396 0 792 0 1200 0 C1200 396 1200 792 1200 1200 C804 1200 408 1200 0 1200 C0 804 0 408 0 0 Z " fill="#E60019" transform="translate(0,0)"/>
<path d="M0 0 C0.96083496 0.17128418 1.92166992 0.34256836 2.91162109 0.51904297 C14.45586113 2.60072561 25.68800165 5.58763039 36.83309937 9.230896 C38.14327264 9.65723104 39.45630088 10.07489881 40.77212524 10.48345947 C51.3682316 13.80558446 51.3682316 13.80558446 53.78515625 18.375 C53.85605469 19.57125 53.92695313 20.7675 54 22 C54.13664063 23.15757812 54.27328125 24.31515625 54.4140625 25.5078125 C54.89080967 33.68314357 55.12428773 41.81081967 55 50 C51.308676 49.36776126 48.06359594 48.33581397 44.59765625 46.92578125 C5.85601392 31.42553491 -42.94529814 18.704331 -83.27832031 35.94165039 C-107.13928053 46.76204434 -122.53120706 65.88692482 -132 90 C-133.01995687 92.81048917 -133.94180569 95.63994489 -134.8125 98.5 C-135.00739014 99.12680664 -135.20228027 99.75361328 -135.40307617 100.39941406 C-139.04885174 113.19578101 -139.41107237 126.48152888 -139.375 139.6875 C-139.37412384 140.47614441 -139.37324768 141.26478882 -139.37234497 142.07733154 C-139.26272017 172.06294001 -130.56333172 202.20520592 -109 224 C-87.64521383 244.31845096 -61.45049632 249.79091759 -32.859375 249.30859375 C-13.22403681 248.81900883 5.42490344 244.08408467 24 238 C24.80002441 237.74412109 25.60004883 237.48824219 26.42431641 237.22460938 C46.9292841 230.57529793 67.43418302 220.6891023 85.32421875 208.6953125 C88 207 88 207 90 207 C89.67386719 205.91203125 89.34773438 204.8240625 89.01171875 203.703125 C83.50463027 185.22875197 78.85709796 167.3471426 78.83203125 147.9609375 C78.82870285 147.03640778 78.82537445 146.11187805 78.82194519 145.15933228 C78.81691738 143.21478771 78.81453557 141.27023465 78.81469727 139.32568359 C78.81252098 136.4031698 78.79434837 133.48104055 78.77539062 130.55859375 C78.65908194 92.77050318 88.12202648 57.83339304 114.6875 29.9375 C140.30598238 5.05651939 176.43017321 -4.40051506 211.29467773 -4.37255859 C242.11130701 -3.81990169 276.57824437 3.17181737 299.9296875 24.765625 C307.92035818 33.38951864 312.69920648 43.01847285 312.34375 54.79296875 C310.33694049 73.51558926 298.13802546 88.40437009 285 101 C282.47668753 103.50676616 279.97225233 106.02852565 277.4921875 108.578125 C271.32665479 114.87248973 264.90604607 120.51372482 258 126 C256.7223108 127.04225439 255.44637745 128.08666365 254.171875 129.1328125 C241.26849351 139.71758133 227.89866138 149.55849402 214.35546875 159.30175781 C212.03522989 160.97460001 209.71994508 162.65405916 207.40625 164.3359375 C198.38118135 170.89150828 189.28171018 177.31526192 180.06152344 183.59326172 C177.94588723 185.03692536 175.83567935 186.48823711 173.7265625 187.94140625 C159.91746266 197.44381188 145.96264597 206.72549601 132 216 C136.81664076 228.60811336 151.01630419 235.90846608 162.75 241.3125 C185.17491544 250.41393129 212.47195839 251.80973664 236 247 C236.84771973 246.83338867 237.69543945 246.66677734 238.56884766 246.49511719 C250.67660614 244.09881154 262.44638602 241.38964732 274 237 C274.87785156 236.67435059 275.75570313 236.34870117 276.66015625 236.01318359 C295.60620025 228.93995179 314.65220148 220.81307148 331.24023438 209.09277344 C333 208 333 208 335 208 C335.08507812 207.00226563 335.17015625 206.00453125 335.2578125 204.9765625 C335.89590218 200.58058827 337.66776749 197.18659615 339.875 193.375 C340.27501221 192.67842285 340.67502441 191.9818457 341.0871582 191.26416016 C350.8861347 174.73699326 365.90493765 160.64476239 381 149 C382.25267528 148.01831991 383.50527411 147.03654225 384.7578125 146.0546875 C401.49281783 133.0223993 418.91438154 121.07442084 437 110 C438.16619873 109.28577881 438.16619873 109.28577881 439.35595703 108.55712891 C462.14029277 94.65713287 485.38147541 81.54776828 508.80029297 68.75341797 C510.94449002 67.57841238 513.08412307 66.3950419 515.21923828 65.20361328 C516.21036621 64.65302246 517.20149414 64.10243164 518.22265625 63.53515625 C519.09801025 63.04539307 519.97336426 62.55562988 520.87524414 62.05102539 C523 61 523 61 525 61 C514.80726681 44.99562069 496.92348442 35.72319525 479 31 C469.36399281 29.02060937 459.80139163 28.63340953 450 28.6875 C449.27634247 28.68998749 448.55268494 28.69247498 447.80709839 28.69503784 C417.31087995 28.8564778 384.99079824 35.73310356 357.86474609 50.13354492 C356 51 356 51 353 51 C353.66 39.45 354.32 27.9 355 16 C383.47893476 5.38073619 412.36805855 -3.31452998 443 -4 C443.79438477 -4.02578125 444.58876953 -4.0515625 445.40722656 -4.078125 C480.80937229 -5.15458705 513.49318067 5.50319764 539.72241211 29.79663086 C566.30628592 55.12806631 577.43074617 93.67361667 578.3458252 129.50375366 C578.51859846 138.21581732 578.4653843 146.92944636 578.40557575 155.64243293 C578.38010387 159.99847733 578.37818487 164.35454019 578.37347412 168.71064758 C578.36117588 176.91219178 578.32853797 185.11351573 578.28807616 193.31496412 C578.24294186 202.67209185 578.22126809 212.02923163 578.20129442 221.38644159 C578.15978912 240.59108465 578.08970115 259.79552446 578 279 C574.12373982 278.55194491 570.24929275 278.08973638 566.375 277.625 C565.28058594 277.49867188 564.18617188 277.37234375 563.05859375 277.2421875 C557.82266867 276.60752991 552.93061384 275.98954593 548 274 C547.96241577 272.9644397 547.96241577 272.9644397 547.92407227 271.90795898 C547.8073434 268.75098591 547.68496822 265.59425543 547.5625 262.4375 C547.52318359 261.35146484 547.48386719 260.26542969 547.44335938 259.14648438 C547.22798645 253.69589254 546.91840778 248.37924559 546 243 C545.36835937 243.67804688 544.73671875 244.35609375 544.0859375 245.0546875 C521.51136877 268.54004574 490.49920113 280.47075367 458.109375 281.28125 C418.23824186 282.03837196 375.30751263 280.10979306 345 251 C344.35289062 250.39285156 343.70578125 249.78570313 343.0390625 249.16015625 C341.6448412 247.82157289 340.31383905 246.41756319 339 245 C339 244.34 339 243.68 339 243 C338.43418213 243.31114746 337.86836426 243.62229492 337.28540039 243.94287109 C310.04763848 258.80975166 280.56852581 271.0203221 250 277 C248.71029297 277.27070312 248.71029297 277.27070312 247.39453125 277.546875 C206.3863364 286.01160699 162.88820463 282.10306922 127.3125 258.8125 C118.88397927 252.76206377 109.96421753 245.2437154 105 236 C101.69722474 237.25337571 98.69013083 238.66254521 95.65625 240.46875 C94.83358643 240.95230957 94.01092285 241.43586914 93.16333008 241.93408203 C92.28443115 242.45083496 91.40553223 242.96758789 90.5 243.5 C63.66248923 258.9947329 35.29122027 270.33784151 5 277 C4.00274902 277.22445801 3.00549805 277.44891602 1.97802734 277.68017578 C-24.23406765 283.36215212 -53.95792542 283.724635 -80 277 C-80.70656738 276.81808105 -81.41313477 276.63616211 -82.14111328 276.44873047 C-108.94110389 269.1962058 -132.81619909 251.9317413 -147 228 C-152.18957265 218.70616258 -156.55047579 209.07460319 -160 199 C-160.34675781 198.00871094 -160.69351563 197.01742187 -161.05078125 195.99609375 C-170.8061075 165.29883161 -171.80877932 127.45603366 -165 96 C-164.82307617 95.17999512 -164.64615234 94.35999023 -164.46386719 93.51513672 C-157.80660468 63.85639984 -143.03804566 33.74885633 -116.83984375 16.6796875 C-80.46665267 -4.83402937 -41.07448106 -7.73007421 0 0 Z " fill="#FEFCFC" transform="translate(395,400)"/>
<path d="M0 0 C226.71 0 453.42 0 687 0 C687 9.57 687 19.14 687 29 C460.29 29 233.58 29 0 29 C0 19.43 0 9.86 0 0 Z " fill="#FEFEFE" transform="translate(256,775)"/>
<path d="M0 0 C2.78141698 1.39070849 2.81983358 2.69346597 3.8125 5.625 C4.57464454 8.07824262 5.30212876 10.52863424 6 13 C6.22155762 13.76618652 6.44311523 14.53237305 6.67138672 15.32177734 C13.16182024 38.53424895 13.0413996 63.47346854 8 87 C7.7834375 88.0209375 7.566875 89.041875 7.34375 90.09375 C1.23236104 114.83032436 -11.28469235 137.72905327 -33.5625 151.1875 C-53.31854642 162.16907729 -74.08463748 164.2474876 -96.3125 164.3125 C-97.021716 164.31626648 -97.73093201 164.32003296 -98.4616394 164.32391357 C-111.71169911 164.35958512 -124.90308636 163.34346268 -137.8125 160.1875 C-138.51842285 160.01645752 -139.2243457 159.84541504 -139.95166016 159.66918945 C-145.99884875 158.1301185 -151.52043068 156.01167169 -157 153 C-158.43666016 152.21109375 -158.43666016 152.21109375 -159.90234375 151.40625 C-166.82879454 147.31546027 -172.39186916 142.82439253 -175 135 C-176.17442333 126.1992581 -174.13695724 120.13849721 -169 113 C-165.56982985 108.77366145 -161.80484851 104.88696755 -158 101 C-157.34128906 100.29101562 -156.68257812 99.58203125 -156.00390625 98.8515625 C-139.70251827 81.67375581 -117.87492248 68.57192066 -98 56 C-97.16098145 55.46906738 -96.32196289 54.93813477 -95.45751953 54.39111328 C-64.57377962 34.92080073 -32.6733051 16.33665255 0 0 Z " fill="#E60019" transform="translate(934,487)"/>
<path d="M0 0 C3.85855304 3.15182859 7.1927287 6.3015647 7.98046875 11.421875 C8.59799605 22.69174831 0.99478409 30.07967174 -6.03369141 37.95166016 C-11.11388603 43.58209775 -16.60969514 48.32456117 -22.51953125 53.078125 C-25.14169019 55.23412235 -27.64811693 57.46629603 -30.14453125 59.765625 C-34.57945428 63.80758016 -39.21805744 67.50089486 -43.95947266 71.17016602 C-47.91378956 74.24132028 -51.73654714 77.42453877 -55.51953125 80.703125 C-62.97499335 87.11410764 -70.9289092 92.82966607 -78.88232422 98.60107422 C-81.24515433 100.32716 -83.59017439 102.07451154 -85.9296875 103.83203125 C-104.69444295 117.89908438 -124.37054998 130.66410747 -144.25537109 143.08447266 C-145.93942695 144.14368954 -147.60213472 145.2367954 -149.2578125 146.33984375 C-149.94230469 146.68660156 -150.62679687 147.03335938 -151.33203125 147.390625 C-152.32203125 147.060625 -153.31203125 146.730625 -154.33203125 146.390625 C-155.31922174 144.09749598 -156.07522003 141.96246507 -156.76953125 139.578125 C-156.98053467 138.86454834 -157.19153809 138.15097168 -157.40893555 137.41577148 C-158.07798345 135.08076663 -158.71161485 132.73900174 -159.33203125 130.390625 C-159.53538086 129.62717773 -159.73873047 128.86373047 -159.94824219 128.07714844 C-168.53353718 94.5959077 -163.31120981 56.46622806 -146.33203125 26.390625 C-134.75806734 7.51207008 -116.18248822 -6.46943209 -94.66015625 -11.828125 C-90.23612953 -12.85846925 -85.7954589 -13.76827396 -81.33203125 -14.609375 C-80.41679688 -14.80402344 -79.5015625 -14.99867188 -78.55859375 -15.19921875 C-52.57979982 -18.50160781 -21.9815118 -15.16982054 0 0 Z " fill="#E6011A" transform="translate(664.33203125,440.609375)"/>
</svg>
