<?xml version="1.0" encoding="UTF-8" standalone="no"?>
<!-- Created with Inkscape (http://www.inkscape.org/) -->

<svg
   version="1.1"
   id="svg1"
   width="450.33334"
   height="209.67999"
   viewBox="0 0 450.33334 209.67999"
   sodipodi:docname="h-UQTR.svg"
   inkscape:version="1.4.3 (0d15f75, 2025-12-25)"
   xmlns:inkscape="http://www.inkscape.org/namespaces/inkscape"
   xmlns:sodipodi="http://sodipodi.sourceforge.net/DTD/sodipodi-0.dtd"
   xmlns="http://www.w3.org/2000/svg"
   xmlns:svg="http://www.w3.org/2000/svg">
  <defs
     id="defs1" />
  <sodipodi:namedview
     id="namedview1"
     pagecolor="#ffffff"
     bordercolor="#000000"
     borderopacity="0.25"
     inkscape:showpageshadow="2"
     inkscape:pageopacity="0.0"
     inkscape:pagecheckerboard="0"
     inkscape:deskcolor="#d1d1d1"
     inkscape:zoom="1.954108"
     inkscape:cx="225.16667"
     inkscape:cy="104.65133"
     inkscape:window-width="2417"
     inkscape:window-height="1212"
     inkscape:window-x="0"
     inkscape:window-y="25"
     inkscape:window-maximized="0"
     inkscape:current-layer="g1">
    <inkscape:page
       x="0"
       y="0"
       inkscape:label="1"
       id="page1"
       width="450.33334"
       height="209.67999"
       margin="0"
       bleed="0" />
  </sodipodi:namedview>
  <g
     id="g1"
     inkscape:groupmode="layer"
     inkscape:label="1">
    <g
       id="group-R5">
      <path
         id="path2"
         d="m 1342.61,717.719 c 0,-17.305 -1.13,-26.789 -4.28,-34.641 -8.12,-20.945 -25.92,-32.469 -50.22,-32.469 -23.42,0 -42.53,12.625 -49.97,32.657 -2.93,7.91 -4.26,19.14 -4.26,34.91 v 85.109 h 14.36 v -85.109 c 0,-15.77 1.37,-25.692 4.52,-32.449 6.3,-13.243 20.72,-22.266 35.58,-22.266 17.8,0 33.34,11.473 38.51,28.594 1.35,5.175 2.23,14.004 2.23,26.121 v 85.109 h 13.53 v -85.566"
         style="fill:#181210;fill-opacity:1;fill-rule:nonzero;stroke:none"
         transform="matrix(0.13333333,0,0,-0.13333333,0,209.68)" />
      <path
         id="path3"
         d="m 1387.3,762.309 c 0.43,-5.207 0.43,-8.125 0.43,-11.934 0,-4.297 0,-5.871 -0.43,-9.934 6.51,14.68 20.47,23.438 36.69,23.438 17.09,0 29.96,-8.516 34.92,-23.438 2.21,-6.523 2.88,-13.933 2.88,-32.195 v -55.129 h -13.7 v 54.699 c 0,19.122 -0.71,24.961 -3.65,30.887 -4.46,8.516 -12.37,13.242 -22.5,13.242 -11.46,0 -22.27,-6.757 -28.13,-17.8 -3.59,-6.985 -4.73,-13.508 -4.73,-27.012 v -54.016 h -13.74 v 68.203 4.27 l 0.24,4.492 v 4.52 c 0,1.386 -0.24,5.636 -0.46,11.476 -0.66,13.535 -0.44,10.789 -0.9,16.231 h 13.08"
         style="fill:#181210;fill-opacity:1;fill-rule:nonzero;stroke:none"
         transform="matrix(0.13333333,0,0,-0.13333333,0,209.68)" />
      <path
         id="path4"
         d="m 1504.47,653.117 h -13.7 v 109.192 h 13.7 z m 1.13,140.539 h -15.97 v 18.387 h 15.97 v -18.387"
         style="fill:#181210;fill-opacity:1;fill-rule:nonzero;stroke:none"
         transform="matrix(0.13333333,0,0,-0.13333333,0,209.68)" />
      <path
         id="path5"
         d="m 1575.62,653.117 h -16.24 l -37.82,109.192 h 14.65 l 13.51,-40.528 c 9.02,-26.808 5.87,-16.679 10.12,-30.422 4.95,-15.281 4.74,-15.281 6.57,-22.742 0.68,-3.566 0.85,-4.726 1.33,-8.332 1.12,5.871 2.05,10.383 3.8,16.926 1.16,4.246 3.17,11.23 6.79,22.715 1.35,3.828 -1.14,-3.379 7.41,22.058 l 13.27,40.325 H 1613 l -37.38,-109.192"
         style="fill:#181210;fill-opacity:1;fill-rule:nonzero;stroke:none"
         transform="matrix(0.13333333,0,0,-0.13333333,0,209.68)" />
      <path
         id="path6"
         d="m 1698.35,715.922 c -0.43,9.668 -1.78,15.301 -4.7,21.172 -4.97,10.125 -14.45,16.199 -25.23,16.199 -12.61,0 -23.43,-7.664 -29.04,-20.516 -2.24,-4.882 -3.38,-9.218 -4.3,-16.855 z m -63.69,-11.242 c 1.14,-25.867 15.76,-42.137 38.25,-42.137 10.82,0 21.42,2.918 30.42,8.328 l 0.43,-13.691 c -9.9,-4.5 -19.38,-6.571 -29.97,-6.571 -33.76,0 -52.86,21.18 -52.86,58.555 0,33.77 18.9,56.063 47.03,56.063 19.59,0 32.66,-8.789 39.64,-26.356 3.35,-8.762 4.71,-18.457 4.71,-34.191 h -77.65"
         style="fill:#181210;fill-opacity:1;fill-rule:nonzero;stroke:none"
         transform="matrix(0.13333333,0,0,-0.13333333,0,209.68)" />
      <path
         id="path7"
         d="m 1747.46,762.309 c 0.23,-7.668 0.23,-9.473 0.23,-11.477 0,-5.41 0,-8.328 -0.48,-14.453 3.14,8.555 4.32,10.84 7.19,14.883 6.11,7.668 14.23,11.933 22.77,11.933 2.7,0 4.71,-0.203 9.24,-1.121 v -14.191 c -3.6,1.113 -5.22,1.347 -8.13,1.347 -12.62,0 -22.05,-7.41 -26.34,-20.925 -2.02,-6.321 -2.49,-10.586 -2.49,-25.899 v -49.289 h -13.7 v 65.488 c 0,0.891 0,4.954 -0.22,10.586 l -0.25,4.465 c -0.21,16.719 -0.21,17.606 -0.88,28.653 h 13.06"
         style="fill:#181210;fill-opacity:1;fill-rule:nonzero;stroke:none"
         transform="matrix(0.13333333,0,0,-0.13333333,0,209.68)" />
      <path
         id="path8"
         d="m 1863.17,746.535 c -9.44,4.043 -16.85,5.84 -24.94,5.84 -14.45,0 -23.25,-5.84 -23.25,-15.742 0,-7.168 4.34,-11.727 16.9,-17.567 l 10.61,-4.953 c 19.34,-8.75 27.21,-18.027 27.21,-31.961 0,-18.691 -16.42,-31.035 -40.97,-31.035 -9.41,0 -18.45,1.758 -28.36,5.567 l 1.13,13.984 c 9.92,-5.402 17.82,-7.668 26.34,-7.668 15.76,0 26.78,7.871 26.78,19.152 0,8.094 -5.15,13.934 -17.06,19.571 l -11.09,5.203 c -8.53,4.082 -11.71,5.84 -15.55,8.762 -6.71,5.41 -10.09,12.363 -10.09,20.945 0,17.09 14.4,27.707 37.4,27.707 7.87,0 15.5,-1.348 26.07,-4.727 l -1.13,-13.078"
         style="fill:#181210;fill-opacity:1;fill-rule:nonzero;stroke:none"
         transform="matrix(0.13333333,0,0,-0.13333333,0,209.68)" />
      <path
         id="path9"
         d="m 1904.38,653.117 h -13.75 v 109.192 h 13.75 z m 1.16,140.539 h -16.04 v 18.387 h 16.04 v -18.387"
         style="fill:#181210;fill-opacity:1;fill-rule:nonzero;stroke:none"
         transform="matrix(0.13333333,0,0,-0.13333333,0,209.68)" />
      <path
         id="path10"
         d="m 1922.22,750.375 v 11.27 h 22.32 v 27.214 l 13.73,4.981 v -32.195 h 25.67 v -11.27 h -25.67 v -53.828 c 0,-17.949 0.21,-20.684 2.92,-25.176 2.7,-4.531 7.44,-7.023 13.99,-7.023 4.04,0 6.05,0.461 10.58,2.031 l 0.61,-11.922 c -5.82,-1.582 -8.7,-2.043 -13.67,-2.043 -11.96,0 -20.71,4.27 -24.8,12.16 -2.43,4.727 -3.13,8.789 -3.36,18.231 v 6.984 6.758 53.828 h -22.32"
         style="fill:#181210;fill-opacity:1;fill-rule:nonzero;stroke:none"
         transform="matrix(0.13333333,0,0,-0.13333333,0,209.68)" />
      <path
         id="path11"
         d="m 2042.5,782.336 h -12.21 l 19.39,28.82 h 20.3 z m 30.4,-66.414 c -0.47,9.668 -1.82,15.301 -4.74,21.172 -4.93,10.125 -14.42,16.199 -25.19,16.199 -12.68,0 -23.48,-7.664 -29.09,-20.516 -2.23,-4.882 -3.36,-9.218 -4.29,-16.855 z m -63.7,-11.242 c 1.1,-25.867 15.69,-42.137 38.22,-42.137 10.83,0 21.41,2.918 30.41,8.328 l 0.44,-13.691 c -9.9,-4.5 -19.34,-6.571 -29.97,-6.571 -33.76,0 -52.86,21.18 -52.86,58.555 0,33.77 18.9,56.063 47.06,56.063 19.57,0 32.63,-8.789 39.61,-26.356 3.37,-8.762 4.75,-18.457 4.75,-34.191 h -77.66"
         style="fill:#181210;fill-opacity:1;fill-rule:nonzero;stroke:none"
         transform="matrix(0.13333333,0,0,-0.13333333,0,209.68)" />
      <path
         id="path12"
         d="m 2174.03,708.703 c 0,-28.359 12.37,-46.16 31.97,-46.16 20.46,0 34.19,18.23 34.19,45.273 0,26.329 -14.44,45.02 -34.92,45.02 -18.87,0 -31.24,-17.316 -31.24,-44.133 z m 79.25,-13.965 c 0,-17.793 0,-16.14 0.44,-25.437 0.21,-5.84 0.21,-9.219 0.66,-16.184 h -12.62 c -0.41,6.711 -0.41,6.281 -0.41,18.254 v 4.246 c -4.74,-13.965 -19.59,-24.082 -36.24,-24.082 -27.72,0 -45.26,21.828 -45.26,56.281 0,34.004 17.54,56.063 44.56,56.063 15.51,0 28.36,-7.899 35.78,-22.293 -0.42,6.094 -0.69,13.055 -0.69,19.148 v 54.446 h 13.78 V 694.738"
         style="fill:#181210;fill-opacity:1;fill-rule:nonzero;stroke:none"
         transform="matrix(0.13333333,0,0,-0.13333333,0,209.68)" />
      <path
         id="path13"
         d="m 2368.44,693.168 v -3.379 c 0,-9.199 0,-4.062 0.2,-15.742 0.71,-15.996 0.44,-15.332 1.11,-20.93 h -12.79 c -0.46,4.512 -0.46,7.852 -0.46,11.231 0,6.105 0,6.523 0.46,11.269 -6.53,-15.535 -19.61,-24.082 -36.72,-24.082 -15.54,0 -26.78,7.18 -32.68,20.762 -1.96,4.25 -3.16,8.937 -3.8,15.031 -0.43,4.031 -0.43,6.297 -0.7,12.82 v 8.098 l -0.19,54.063 h 13.7 l 0.23,-54.063 c 0,-20.031 0.96,-25.441 4.53,-32.383 4.27,-8.136 11.46,-12.402 20.68,-12.402 11.74,0 21.63,6.523 27.74,18.23 3.8,7.207 4.95,14.649 4.95,27.696 l -0.27,52.922 h 13.74 l 0.27,-69.141"
         style="fill:#181210;fill-opacity:1;fill-rule:nonzero;stroke:none"
         transform="matrix(0.13333333,0,0,-0.13333333,0,209.68)" />
      <path
         id="path14"
         d="m 2467.54,727.621 c 0,-38.488 20.67,-64.16 52.23,-64.16 31.28,0 51.55,25.672 51.55,65.047 0,17.121 -4.91,34.023 -13.73,45.957 -8.55,11.68 -22.06,18.457 -36.95,18.457 -32.65,0 -53.1,-25.008 -53.1,-65.301 z m 112.75,-103.555 h -20.2 l -29.32,27.274 c -5.83,-0.496 -8.51,-0.731 -11.25,-0.731 -18,0 -33.95,6.336 -45.46,17.801 -13.05,13.047 -21.65,36.692 -21.65,59.485 0,47.234 26.13,77.851 66.22,77.851 20.7,0 38.5,-7.871 49.75,-22.031 11.49,-14.219 18.03,-34.485 18.03,-55.41 0,-25.442 -8.33,-47.715 -22.95,-61.7 -4.57,-4.472 -6.33,-5.636 -17.61,-11.457 l 34.44,-31.082"
         style="fill:#181210;fill-opacity:1;fill-rule:nonzero;stroke:none"
         transform="matrix(0.13333333,0,0,-0.13333333,0,209.68)" />
      <path
         id="path15"
         d="m 2698.25,693.168 v -3.379 c 0,-9.199 0,-4.062 0.2,-15.742 0.7,-15.996 0.47,-15.332 1.18,-20.93 h -12.84 c -0.46,4.512 -0.46,7.852 -0.46,11.231 0,6.105 0,6.523 0.46,11.269 -6.54,-15.535 -19.58,-24.082 -36.69,-24.082 -15.53,0 -26.79,7.18 -32.69,20.762 -2.03,4.25 -3.1,8.937 -3.79,15.031 -0.47,4.031 -0.47,6.297 -0.7,12.82 v 8.098 l -0.21,54.063 h 13.72 l 0.27,-54.063 c 0,-20.031 0.87,-25.441 4.44,-32.383 4.3,-8.136 11.52,-12.402 20.74,-12.402 11.72,0 21.63,6.523 27.69,18.23 3.84,7.207 4.95,14.649 4.95,27.696 l -0.22,52.922 h 13.72 l 0.23,-69.141"
         style="fill:#181210;fill-opacity:1;fill-rule:nonzero;stroke:none"
         transform="matrix(0.13333333,0,0,-0.13333333,0,209.68)" />
      <path
         id="path16"
         d="m 2769.66,782.336 h -12.16 l 19.37,28.82 h 20.25 z m 30.38,-66.414 c -0.45,9.668 -1.79,15.301 -4.71,21.172 -4.98,10.125 -14.38,16.199 -25.21,16.199 -12.62,0 -23.44,-7.664 -29.06,-20.516 -2.25,-4.882 -3.36,-9.218 -4.28,-16.855 z m -63.69,-11.242 c 1.11,-25.867 15.76,-42.137 38.26,-42.137 10.78,0 21.41,2.918 30.43,8.328 l 0.38,-13.691 c -9.82,-4.5 -19.3,-6.571 -29.92,-6.571 -33.77,0 -52.89,21.18 -52.89,58.555 0,33.77 18.91,56.063 47.05,56.063 19.56,0 32.65,-8.789 39.62,-26.356 3.43,-8.762 4.69,-18.457 4.69,-34.191 h -77.62"
         style="fill:#181210;fill-opacity:1;fill-rule:nonzero;stroke:none"
         transform="matrix(0.13333333,0,0,-0.13333333,0,209.68)" />
      <path
         id="path17"
         d="m 2858.14,737.523 c -5.42,-8.058 -7.91,-17.316 -7.91,-29.707 0,-26.582 14.2,-45.273 33.97,-45.273 20.06,0 32.46,17.344 32.46,45.086 0,27.891 -12.18,45.207 -31.5,45.207 -10.41,0 -20.73,-5.871 -27.02,-15.313 z m -7.64,22.52 c 0,-7.891 -0.27,-13.965 -0.95,-18.684 6.09,13.508 20.72,22.52 37.17,22.52 27.24,0 44.13,-21.375 44.13,-56.25 0,-13.543 -3.64,-26.856 -9.7,-37.176 -7.45,-12.402 -19.34,-18.918 -34.43,-18.918 -17.57,0 -29.27,6.985 -37.37,22.512 0.45,-2.715 0.45,-2.492 0.45,-5.176 v -8.332 c 0.21,-3.359 0.21,-3.855 0.21,-7.422 h -12.81 l -0.7,162.063 h 14 v -55.137"
         style="fill:#181210;fill-opacity:1;fill-rule:nonzero;stroke:none"
         transform="matrix(0.13333333,0,0,-0.13333333,0,209.68)" />
      <path
         id="path18"
         d="m 3026.24,715.922 c -0.42,9.668 -1.79,15.301 -4.71,21.172 -4.96,10.125 -14.39,16.199 -25.25,16.199 -12.55,0 -23.41,-7.664 -29.04,-20.516 -2.26,-4.882 -3.38,-9.218 -4.26,-16.855 z m -63.73,-11.242 c 1.16,-25.867 15.77,-42.137 38.29,-42.137 10.79,0 21.38,2.918 30.41,8.328 l 0.44,-13.691 c -9.92,-4.5 -19.37,-6.571 -29.95,-6.571 -33.77,0 -52.92,21.18 -52.92,58.555 0,33.77 18.92,56.063 47.05,56.063 19.62,0 32.65,-8.789 39.62,-26.356 3.35,-8.762 4.74,-18.457 4.74,-34.191 h -77.68"
         style="fill:#181210;fill-opacity:1;fill-rule:nonzero;stroke:none"
         transform="matrix(0.13333333,0,0,-0.13333333,0,209.68)" />
      <path
         id="path19"
         d="m 3137.24,744.934 c -8.55,3.613 -16.02,5.207 -24.1,5.207 -24.54,0 -41.42,-17.11 -41.42,-42.09 0,-25.43 16.88,-43.703 40.49,-43.703 8.81,0 17.6,2.031 25.5,6.105 l 1.3,-13.508 c -7.4,-2.957 -17.34,-4.531 -28.15,-4.531 -31.24,0 -53.33,23.203 -53.33,55.832 0,32.195 22.54,54.746 54.68,54.746 9.27,0 17.33,-1.347 25.7,-4.062 l -0.67,-13.996"
         style="fill:#181210;fill-opacity:1;fill-rule:nonzero;stroke:none"
         transform="matrix(0.13333333,0,0,-0.13333333,0,209.68)" />
      <path
         id="path20"
         d="m 1269.25,598.43 19.35,-28.821 h -12.36 l -27.26,28.821 z m 32.9,-103.071 c -3.85,0.192 -6.79,0.192 -8.6,0.192 -12.85,0 -25.21,-1.813 -31.76,-4.52 -10.1,-4.062 -15.77,-11.679 -15.77,-20.949 0,-12.172 9.49,-20.262 23.23,-20.262 13.71,0 26.11,8.551 30.36,20.52 1.82,5.832 2.54,10.551 2.54,21.371 z m -57.68,48.352 c 10.34,4.961 22.04,7.488 33.31,7.488 16.92,0 29.28,-7.258 34.46,-19.879 2.26,-5.609 3.38,-15.519 3.38,-27.672 V 484.93 c 0,-3.149 0,-5.102 0.2,-15.508 0.95,-25.442 0.67,-22.703 1.14,-29.031 h -13.05 c 0,3.589 -0.23,6.757 -0.23,8.308 0,4.34 0,6.289 0.46,11.75 -8.33,-15.078 -19.57,-21.629 -37.38,-21.629 -21.36,0 -34.9,12.649 -34.9,32.418 0,22.934 21.37,35.551 59.91,35.551 1.78,0 5.62,-0.199 10.11,-0.449 0.27,0.961 0.27,1.801 0.27,2.031 0,21.399 -8.6,30.848 -27.51,30.848 -10.36,0 -18.23,-2.489 -30.39,-9.68 l 0.22,14.172"
         style="fill:#181210;fill-opacity:1;fill-rule:nonzero;stroke:none"
         transform="matrix(0.13333333,0,0,-0.13333333,0,209.68)" />
      <path
         id="path21"
         d="m 1494.87,576.82 h -44.81 V 440.391 h -14.38 V 576.82 h -45.05 v 12.852 h 104.24 V 576.82"
         style="fill:#181210;fill-opacity:1;fill-rule:nonzero;stroke:none"
         transform="matrix(0.13333333,0,0,-0.13333333,0,209.68)" />
      <path
         id="path22"
         d="m 1509.86,549.551 c 0.24,-7.641 0.24,-9.442 0.24,-11.473 0,-5.387 0,-8.308 -0.42,-14.379 3.13,8.539 4.25,10.77 7.19,14.832 6.1,7.641 14.17,11.957 22.75,11.957 2.67,0 4.69,-0.168 9.21,-1.136 V 535.16 c -3.58,1.141 -5.18,1.34 -8.12,1.34 -12.57,0 -22.04,-7.41 -26.32,-20.949 -2.01,-6.27 -2.51,-10.563 -2.51,-25.903 v -49.257 h -13.72 v 65.488 c 0,0.91 0,4.949 -0.23,10.59 l -0.22,4.519 c -0.22,16.653 -0.22,17.543 -0.87,28.563 h 13.02"
         style="fill:#181210;fill-opacity:1;fill-rule:nonzero;stroke:none"
         transform="matrix(0.13333333,0,0,-0.13333333,0,209.68)" />
      <path
         id="path23"
         d="m 1572.72,494.859 c 0,-26.539 15.6,-45.929 36.95,-45.929 21.18,0 36.72,19.39 36.72,45.672 0,26.847 -15.33,46.418 -36.27,46.418 -22.06,0 -37.4,-18.942 -37.4,-46.161 z m 87.82,0.231 c 0,-34.43 -20.22,-57.16 -50.42,-57.16 -31.07,0 -51.55,22.519 -51.55,56.672 0,34.718 20.24,57.457 51.1,57.457 31.05,0 50.87,-22.039 50.87,-56.969 v 0"
         style="fill:#181210;fill-opacity:1;fill-rule:nonzero;stroke:none"
         transform="matrix(0.13333333,0,0,-0.13333333,0,209.68)" />
      <path
         id="path24"
         d="m 1697.84,440.391 h -13.72 v 109.16 h 13.72 z m 1.13,140.472 h -15.96 v 18.485 h 15.96 v -18.485"
         style="fill:#181210;fill-opacity:1;fill-rule:nonzero;stroke:none"
         transform="matrix(0.13333333,0,0,-0.13333333,0,209.68)" />
      <path
         id="path25"
         d="m 1781.79,533.809 c -9.49,4.062 -16.89,5.921 -25.01,5.921 -14.39,0 -23.16,-5.921 -23.16,-15.82 0,-7.219 4.27,-11.66 16.86,-17.57 l 10.58,-4.93 c 19.34,-8.808 27.24,-18 27.24,-31.988 0,-18.684 -16.42,-31.082 -40.93,-31.082 -9.48,0 -18.52,1.801 -28.4,5.64 l 1.13,13.93 c 9.92,-5.351 17.79,-7.629 26.36,-7.629 15.75,0 26.75,7.891 26.75,19.141 0,8.148 -5.13,13.988 -17.08,19.578 l -11.07,5.172 c -8.52,4.066 -11.71,5.867 -15.46,8.789 -6.84,5.41 -10.18,12.391 -10.18,20.949 0,17.11 14.41,27.692 37.36,27.692 7.89,0 15.52,-1.282 26.14,-4.743 l -1.13,-13.05"
         style="fill:#181210;fill-opacity:1;fill-rule:nonzero;stroke:none"
         transform="matrix(0.13333333,0,0,-0.13333333,0,209.68)" />
      <path
         id="path26"
         d="m 1847.99,490.34 h -49.52 v 11.5 h 49.52 v -11.5"
         style="fill:#181210;fill-opacity:1;fill-rule:nonzero;stroke:none"
         transform="matrix(0.13333333,0,0,-0.13333333,0,209.68)" />
      <path
         id="path27"
         d="m 1888.1,522.34 h 11.9 c 16,0 24.58,2.25 31.74,8.121 6.33,5.148 10.38,13.25 10.38,20.918 0,9.68 -5.63,18.66 -14.19,22.726 -4.76,2.489 -13.31,3.68 -25.48,3.68 h -14.35 z m 14.61,68.219 c 20.46,0 29.28,-1.571 37.57,-7.215 10.83,-7.207 16.92,-18.223 16.92,-31.535 0,-13.25 -6.09,-24.071 -17.57,-31.278 -5.19,-3.101 -8.98,-4.519 -16.65,-5.41 10.32,-1.57 14.2,-5.633 21.82,-22.242 l 23.9,-52.488 h -16.02 l -20.45,45.941 c -5.2,12.137 -7.02,15.078 -11.09,18.246 -4.01,3.332 -9.66,4.91 -16.63,4.91 h -4.51 -11.9 v -69.097 h -14.44 v 150.168 h 29.05"
         style="fill:#181210;fill-opacity:1;fill-rule:nonzero;stroke:none"
         transform="matrix(0.13333333,0,0,-0.13333333,0,209.68)" />
      <path
         id="path28"
         d="m 2003.13,440.391 h -13.74 v 109.16 h 13.74 z m 1.17,140.472 h -15.99 v 18.485 h 15.99 v -18.485"
         style="fill:#181210;fill-opacity:1;fill-rule:nonzero;stroke:none"
         transform="matrix(0.13333333,0,0,-0.13333333,0,209.68)" />
      <path
         id="path29"
         d="m 2074.3,440.391 h -16.22 l -37.84,109.16 h 14.65 l 13.51,-40.492 c 9.01,-26.821 5.83,-16.637 10.14,-30.418 4.92,-15.27 4.71,-15.27 6.48,-22.731 0.69,-3.551 0.94,-4.699 1.35,-8.328 1.15,5.84 2.1,10.328 3.85,16.918 1.14,4.281 3.19,11.219 6.79,22.738 1.3,3.793 -1.14,-3.429 7.42,22.043 l 13.27,40.27 h 13.97 l -37.37,-109.16"
         style="fill:#181210;fill-opacity:1;fill-rule:nonzero;stroke:none"
         transform="matrix(0.13333333,0,0,-0.13333333,0,209.68)" />
      <path
         id="path30"
         d="m 2142.81,440.391 h -13.73 v 109.16 h 13.73 z m 1.15,140.472 h -16 v 18.485 h 16 v -18.485"
         style="fill:#181210;fill-opacity:1;fill-rule:nonzero;stroke:none"
         transform="matrix(0.13333333,0,0,-0.13333333,0,209.68)" />
      <path
         id="path31"
         d="m 2203.16,598.43 19.4,-28.821 h -12.37 l -27.28,28.821 z m 40.35,-95.239 c -0.5,9.668 -1.85,15.309 -4.73,21.18 -4.95,10.098 -14.43,16.25 -25.25,16.25 -12.58,0 -23.4,-7.68 -29.04,-20.551 -2.25,-4.949 -3.38,-9.242 -4.27,-16.879 z m -63.73,-11.25 c 1.11,-25.871 15.8,-42.121 38.24,-42.121 10.79,0 21.38,2.95 30.4,8.352 l 0.45,-13.711 c -9.91,-4.473 -19.37,-6.531 -29.93,-6.531 -33.78,0 -52.88,21.16 -52.88,58.511 0,33.821 18.85,56.047 47.05,56.047 19.57,0 32.61,-8.777 39.6,-26.297 3.38,-8.761 4.73,-18.511 4.73,-34.25 h -77.66"
         style="fill:#181210;fill-opacity:1;fill-rule:nonzero;stroke:none"
         transform="matrix(0.13333333,0,0,-0.13333333,0,209.68)" />
      <path
         id="path32"
         d="m 2292.53,549.551 c 0.26,-7.641 0.26,-9.442 0.26,-11.473 0,-5.387 0,-8.308 -0.44,-14.379 3.14,8.539 4.25,10.77 7.2,14.832 6.1,7.641 14.17,11.957 22.73,11.957 2.67,0 4.76,-0.168 9.23,-1.136 V 535.16 c -3.6,1.141 -5.17,1.34 -8.13,1.34 -12.58,0 -22.01,-7.41 -26.28,-20.949 -2.07,-6.27 -2.49,-10.563 -2.49,-25.903 v -49.257 h -13.77 v 65.488 c 0,0.91 0,4.949 -0.17,10.59 l -0.26,4.519 c -0.2,16.653 -0.2,17.543 -0.92,28.563 h 13.04"
         style="fill:#181210;fill-opacity:1;fill-rule:nonzero;stroke:none"
         transform="matrix(0.13333333,0,0,-0.13333333,0,209.68)" />
      <path
         id="path33"
         d="m 2419.4,503.191 c -0.48,9.668 -1.83,15.309 -4.75,21.18 -4.98,10.098 -14.39,16.25 -25.25,16.25 -12.54,0 -23.36,-7.68 -29.03,-20.551 -2.24,-4.949 -3.39,-9.242 -4.26,-16.879 z m -63.73,-11.25 c 1.09,-25.871 15.74,-42.121 38.3,-42.121 10.79,0 21.35,2.95 30.33,8.352 l 0.49,-13.711 c -9.9,-4.473 -19.39,-6.531 -29.94,-6.531 -33.81,0 -52.9,21.16 -52.9,58.511 0,33.77 18.91,56.047 47.02,56.047 19.59,0 32.67,-8.777 39.65,-26.297 3.37,-8.761 4.71,-18.511 4.71,-34.25 h -77.66"
         style="fill:#181210;fill-opacity:1;fill-rule:nonzero;stroke:none"
         transform="matrix(0.13333333,0,0,-0.13333333,0,209.68)" />
      <path
         id="path34"
         d="m 2511.91,533.809 c -9.46,4.062 -16.9,5.921 -25.01,5.921 -14.41,0 -23.16,-5.921 -23.16,-15.82 0,-7.219 4.22,-11.66 16.85,-17.57 l 10.61,-4.93 c 19.39,-8.808 27.25,-18 27.25,-31.988 0,-18.684 -16.44,-31.082 -40.99,-31.082 -9.5,0 -18.49,1.801 -28.36,5.64 l 1.1,13.93 c 9.92,-5.351 17.76,-7.629 26.35,-7.629 15.79,0 26.79,7.891 26.79,19.141 0,8.148 -5.19,13.988 -17.12,19.578 l -11.04,5.172 c -8.53,4.066 -11.66,5.867 -15.54,8.789 -6.72,5.41 -10.15,12.391 -10.15,20.949 0,17.11 14.43,27.692 37.41,27.692 7.9,0 15.55,-1.282 26.11,-4.743 l -1.1,-13.05"
         style="fill:#181210;fill-opacity:1;fill-rule:nonzero;stroke:none"
         transform="matrix(0.13333333,0,0,-0.13333333,0,209.68)" />
      <path
         id="path35"
         d="M 615.188,722.824 H 525.141 L 443.988,929.102 H 576.809 L 615.188,722.824"
         style="fill:#ffffff;fill-opacity:1;fill-rule:nonzero;stroke:none"
         transform="matrix(0.13333333,0,0,-0.13333333,0,209.68)" />
      <path
         id="path36"
         d="M 784.98,929.102 760.395,722.824 H 654.762 L 630.176,929.102 H 784.98"
         style="fill:#ffffff;fill-opacity:1;fill-rule:nonzero;stroke:none"
         transform="matrix(0.13333333,0,0,-0.13333333,0,209.68)" />
      <path
         id="path37"
         d="M 971.168,929.102 890.117,722.824 h -90.043 l 38.371,206.278 h 132.723"
         style="fill:#ffffff;fill-opacity:1;fill-rule:nonzero;stroke:none"
         transform="matrix(0.13333333,0,0,-0.13333333,0,209.68)" />
      <path
         id="path38"
         d="M 696.332,287.09 604.195,521.559 H 652.66 Z"
         style="fill:#ffffff;fill-opacity:1;fill-rule:nonzero;stroke:none"
         transform="matrix(0.13333333,0,0,-0.13333333,0,209.68)" />
      <path
         id="path39"
         d="M 736.313,521.559 707.629,280.602 678.848,521.559 Z"
         style="fill:#ffffff;fill-opacity:1;fill-rule:nonzero;stroke:none"
         transform="matrix(0.13333333,0,0,-0.13333333,0,209.68)" />
      <path
         id="path40"
         d="M 810.969,521.559 718.824,287.09 762.496,521.559 Z"
         style="fill:#ffffff;fill-opacity:1;fill-rule:nonzero;stroke:none"
         transform="matrix(0.13333333,0,0,-0.13333333,0,209.68)" />
      <path
         id="path41"
         d="m 973.469,718.93 v -27.578 c 0,-56.27 -11.399,-112.239 -32.985,-166 H 474.672 c -21.586,53.761 -32.977,109.73 -32.977,166 v 27.578 h 531.774"
         style="fill:#ffffff;fill-opacity:1;fill-rule:nonzero;stroke:none"
         transform="matrix(0.13333333,0,0,-0.13333333,0,209.68)" />
      <path
         id="path42"
         d="M 938.883,521.539 C 896.719,418.82 817.363,324.672 709.84,253.301 l 105.312,268.238 h 123.731"
         style="fill:#ffffff;fill-opacity:1;fill-rule:nonzero;stroke:none"
         transform="matrix(0.13333333,0,0,-0.13333333,0,209.68)" />
      <path
         id="path43"
         d="M 758.609,521.539 708.422,252.41 c -0.102,0 -0.203,-0.109 -0.313,-0.18 l 32.11,269.309 h 18.39"
         style="fill:#ffffff;fill-opacity:1;fill-rule:nonzero;stroke:none"
         transform="matrix(0.13333333,0,0,-0.13333333,0,209.68)" />
      <path
         id="path44"
         d="m 707.043,252.23 c 0,0.071 -0.211,0.18 -0.313,0.18 l -50.082,269.129 h 18.286 L 707.043,252.23"
         style="fill:#ffffff;fill-opacity:1;fill-rule:nonzero;stroke:none"
         transform="matrix(0.13333333,0,0,-0.13333333,0,209.68)" />
      <path
         id="path45"
         d="M 705.414,253.301 C 597.789,324.672 518.539,418.82 476.27,521.539 H 600.105 L 705.414,253.301"
         style="fill:#ffffff;fill-opacity:1;fill-rule:nonzero;stroke:none"
         transform="matrix(0.13333333,0,0,-0.13333333,0,209.68)" />
      <path
         id="path46"
         d="M 520.957,722.824 H 441.711 V 924.289 Z"
         style="fill:#ffffff;fill-opacity:1;fill-rule:nonzero;stroke:none"
         transform="matrix(0.13333333,0,0,-0.13333333,0,209.68)" />
      <path
         id="path47"
         d="M 650.879,722.824 H 619.184 L 580.613,929.512 H 626.27 L 650.879,722.824"
         style="fill:#ffffff;fill-opacity:1;fill-rule:nonzero;stroke:none"
         transform="matrix(0.13333333,0,0,-0.13333333,0,209.68)" />
      <path
         id="path48"
         d="M 834.543,929.512 796.074,722.824 h -31.761 l 24.675,206.688 h 45.555"
         style="fill:#ffffff;fill-opacity:1;fill-rule:nonzero;stroke:none"
         transform="matrix(0.13333333,0,0,-0.13333333,0,209.68)" />
      <path
         id="path49"
         d="M 973.48,924.289 V 722.824 h -79.183 z"
         style="fill:#ffffff;fill-opacity:1;fill-rule:nonzero;stroke:none"
         transform="matrix(0.13333333,0,0,-0.13333333,0,209.68)" />
      <path
         id="path50"
         d="M 810.969,521.559 718.824,287.09 762.496,521.559 Z"
         style="fill:#006436;fill-opacity:1;fill-rule:nonzero;stroke:none"
         transform="matrix(0.13333333,0,0,-0.13333333,0,209.68)" />
      <path
         id="path51"
         d="M 736.313,521.559 707.629,280.602 678.848,521.559 Z"
         style="fill:#006436;fill-opacity:1;fill-rule:nonzero;stroke:none"
         transform="matrix(0.13333333,0,0,-0.13333333,0,209.68)" />
      <path
         id="path52"
         d="M 696.332,287.09 604.195,521.559 H 652.66 Z"
         style="fill:#006436;fill-opacity:1;fill-rule:nonzero;stroke:none"
         transform="matrix(0.13333333,0,0,-0.13333333,0,209.68)" />
      <path
         id="path53"
         d="M 971.168,929.102 890.117,722.824 h -90.043 l 38.371,206.278 h 132.723"
         style="fill:#006436;fill-opacity:1;fill-rule:nonzero;stroke:none"
         transform="matrix(0.13333333,0,0,-0.13333333,0,209.68)" />
      <path
         id="path54"
         d="M 784.98,929.102 760.395,722.824 H 654.762 L 630.176,929.102 H 784.98"
         style="fill:#006436;fill-opacity:1;fill-rule:nonzero;stroke:none"
         transform="matrix(0.13333333,0,0,-0.13333333,0,209.68)" />
      <path
         id="path55"
         d="M 615.188,722.824 H 525.141 L 443.988,929.102 H 576.809 L 615.188,722.824"
         style="fill:#006436;fill-opacity:1;fill-rule:nonzero;stroke:none"
         transform="matrix(0.13333333,0,0,-0.13333333,0,209.68)" />
      <path
         id="path56"
         d="m 973.469,718.93 v -27.578 c 0,-56.27 -11.399,-112.239 -32.985,-166 H 474.672 c -21.586,53.761 -32.977,109.73 -32.977,166 v 27.578 h 531.774"
         style="fill:#c39207;fill-opacity:1;fill-rule:nonzero;stroke:none"
         transform="matrix(0.13333333,0,0,-0.13333333,0,209.68)" />
      <path
         id="path57"
         d="m 590.496,585.715 c 0.703,-0.703 1.606,-1.199 2.5,-1.602 -2.394,-3.398 -2.598,-12.793 -2.598,-25.683 v -5.801 c -3.097,0.301 -4.992,0.801 -5.793,1.199 1.497,3.902 2.5,8.594 0.297,16.902 -1.699,6.489 1.297,12.68 5,14.985 h 0.594"
         style="fill:#006436;fill-opacity:1;fill-rule:nonzero;stroke:none"
         transform="matrix(0.13333333,0,0,-0.13333333,0,209.68)" />
      <path
         id="path58"
         d="m 596.797,596.41 c 3,0 5.394,-2.004 5.394,-4.601 0,-2.5 -2.394,-4.598 -5.394,-4.598 -2.996,0 -5.395,2.098 -5.395,4.598 0,2.597 2.399,4.601 5.395,4.601"
         style="fill:#006436;fill-opacity:1;fill-rule:nonzero;stroke:none"
         transform="matrix(0.13333333,0,0,-0.13333333,0,209.68)" />
      <path
         id="path59"
         d="m 600.492,567.621 c 0.801,-4.793 1.602,-9.891 3,-13.891 -3.797,-0.89 -7.191,-1.101 -9.195,-1.101 v 5.801 c 0,7.39 0,21.183 1.898,23.39 0.106,0.098 0.2,0.293 0.305,0.399 1.898,-1.199 3.094,-9.102 3.992,-14.598"
         style="fill:#006436;fill-opacity:1;fill-rule:nonzero;stroke:none"
         transform="matrix(0.13333333,0,0,-0.13333333,0,209.68)" />
      <path
         id="path60"
         d="m 613.188,557.23 c -1.899,-1.089 -4,-1.89 -5.997,-2.5 -1.3,3.7 -2.097,8.7 -2.898,13.59 -1.102,6.801 -2.102,12.493 -4.199,15.598 0.398,0.098 0.703,0.195 0.902,0.402 2.996,-2.207 3.496,-3.8 4.195,-5.8 0.301,-0.997 0.7,-2.004 1.297,-3.098 1.602,-4.5 5.5,-14.992 6.7,-18.192"
         style="fill:#006436;fill-opacity:1;fill-rule:nonzero;stroke:none"
         transform="matrix(0.13333333,0,0,-0.13333333,0,209.68)" />
      <path
         id="path61"
         d="m 607.191,554.73 c -1.3,3.7 -2.097,8.7 -2.898,13.59 -1.102,6.801 -2.102,12.493 -4.199,15.598 0.398,0.098 0.703,0.195 0.902,0.402 2.996,-2.207 3.496,-3.8 4.195,-5.8 0.301,-0.997 0.7,-2.004 1.297,-3.098 1.602,-4.5 5.5,-14.992 6.7,-18.192 -1.899,-1.089 -4,-1.89 -5.997,-2.5 z m -12.894,-2.101 v 5.801 c 0,7.39 0,21.183 1.898,23.39 0.106,0.098 0.2,0.293 0.305,0.399 1.898,-1.199 3.094,-9.102 3.992,-14.598 0.801,-4.793 1.602,-9.891 3,-13.891 -3.797,-0.89 -7.191,-1.101 -9.195,-1.101 z m -2.895,39.18 c 0,2.597 2.399,4.601 5.395,4.601 3,0 5.394,-2.004 5.394,-4.601 0,-2.5 -2.394,-4.598 -5.394,-4.598 -2.996,0 -5.395,2.098 -5.395,4.598 z m -1.004,-33.379 v -5.801 c -3.097,0.301 -4.992,0.801 -5.793,1.199 1.497,3.902 2.5,8.594 0.297,16.902 -1.699,6.489 1.297,12.68 5,14.985 h 0.594 c 0.703,-0.703 1.606,-1.199 2.5,-1.602 -2.394,-3.398 -2.598,-12.793 -2.598,-25.683 z m 2.399,48.371 c -0.199,3.699 -0.297,7.793 -0.399,11.59 -0.097,3.203 -0.195,6.203 -0.296,8.496 -0.204,3.301 -0.801,5.293 -1.797,6.191 -0.703,0.606 -1.903,1.008 -5.203,1.008 -0.801,0 -2.399,0 -4.395,0.098 -11.394,0.3 -37.977,1.394 -41.574,1.504 -0.598,0.097 -1.199,0.398 -1.598,0.789 -0.5,0.507 -0.703,1.105 -0.703,1.808 0,0.692 0.301,1.192 0.801,1.59 0.504,0.508 1.097,0.703 1.699,0.703 0.398,0 39.977,-1.699 45.77,-1.699 2.003,0 3.703,-0.098 5.203,-0.594 3.894,-1.105 6.293,-4.004 6.691,-11.094 0.098,-2.402 0.199,-5.402 0.199,-8.703 0.203,-6.093 0.403,-13.183 1.004,-18.281 -0.402,0.098 -0.902,0.195 -1.402,0.195 -1.199,0 -2.399,-0.3 -3.399,-0.703 0,0.305 -0.097,0.703 -0.097,1.106 -0.199,1.797 -0.403,3.797 -0.504,5.996 z m -13.789,18.387 8.996,3.996 c 0.098,-0.696 0.199,-1.399 0.199,-2.493 0.199,-2.207 0.297,-5.3 0.297,-8.398 0,-0.996 0.098,-1.895 0.098,-2.898 -3.094,3.496 -6.293,6.699 -9.59,9.793 z m -64.559,-24.286 c -11.793,0 -23.785,-4.394 -35.879,-12.89 3.102,14.59 11.493,27.781 18.989,35.078 l 6.093,-2.395 C 496.559,615.297 493.16,608.598 490.664,603 c 28.578,12.297 55.863,-0.496 62.957,-11.191 7.594,14.894 17.59,17.285 29.484,15.293 -3.3,5.5 -7.496,10.39 -11.792,14.687 l 3.898,1.699 c 4.992,-4.597 9.394,-8.992 13.594,-14.394 0.097,-2.196 0.199,-4.297 0.394,-6.289 -11.594,-0.203 -26.582,-3.203 -34.078,-22.188 -6.996,8.594 -21.387,20.285 -40.672,20.285 z m -43.875,37.176 73.254,23.789 64.16,-19.785 -10.191,-4.402 c -3.102,4.402 -8.195,5.097 -12.695,5.097 -0.598,0 -1.7,0 -3.094,0.098 l -38.68,12.195 -54.363,-17.988 52.465,-19.285 30.484,12.793 c 3.496,-0.207 6.594,-0.305 8.992,-0.305 l -43.273,-18.984 z m 155.207,-72.547 c -0.504,2.297 -3,3 -5.5,3.688 -1.297,0.402 -2.593,0.801 -3.597,1.402 -6.098,4.098 -6.895,6.5 -7.797,9.098 -0.797,2.199 -1.5,4.394 -4.692,6.992 1.196,1.504 1.895,3.203 1.895,5.098 0,2.804 -1.5,5.293 -3.695,6.796 -0.903,4.895 -1.102,13.79 -1.301,19.993 -0.098,3.289 -0.098,6.289 -0.297,8.789 -0.106,2.801 -0.602,4.902 -1.203,6.797 l 19.59,8.593 -75.454,23.086 -84.55,-27.383 34.48,-13.886 c -8.492,-8.703 -17.59,-24.192 -19.789,-40.781 l -0.601,-4.7 3.699,2.903 c 12.793,9.89 25.383,14.89 37.48,14.89 19.985,0 34.278,-13.496 39.672,-21.484 l 2.203,-3.402 1.297,3.902 c 6.094,19.785 20.09,22.879 31.981,22.988 0.101,-0.508 0.101,-1.008 0.199,-1.504 -1.399,-1.496 -2.301,-3.398 -2.301,-5.597 0,-0.996 0.199,-1.797 0.504,-2.696 -5.098,-2.996 -8.996,-10.898 -6.797,-19.394 1.898,-7.188 1.098,-11.188 -0.5,-14.879 -0.398,-1.012 -0.301,-2 0.301,-2.899 1.695,-2.711 7.691,-3.113 11.094,-3.3 0.101,0 0.101,0 0.101,0 0,0 0,0 0.098,0 h 0.898 c 4.297,0 18.789,0.699 28.879,10.089 3.102,2.801 4.199,4.899 3.703,6.801"
         style="fill:#181210;fill-opacity:1;fill-rule:nonzero;stroke:none"
         transform="matrix(0.13333333,0,0,-0.13333333,0,209.68)" />
      <path
         id="path62"
         d="m 589.199,602.805 c -11.594,-0.203 -26.582,-3.203 -34.078,-22.188 -6.996,8.594 -21.387,20.285 -40.672,20.285 -11.793,0 -23.785,-4.394 -35.879,-12.89 3.102,14.59 11.493,27.781 18.989,35.078 l 6.093,-2.395 C 496.559,615.297 493.16,608.598 490.664,603 c 28.578,12.297 55.863,-0.496 62.957,-11.191 7.594,14.894 17.59,17.285 29.484,15.293 -3.3,5.5 -7.496,10.39 -11.792,14.687 l 3.898,1.699 c 4.992,-4.597 9.394,-8.992 13.594,-14.394 0.097,-2.196 0.199,-4.297 0.394,-6.289"
         style="fill:#006436;fill-opacity:1;fill-rule:nonzero;stroke:none"
         transform="matrix(0.13333333,0,0,-0.13333333,0,209.68)" />
      <path
         id="path63"
         d="m 607.988,642.082 -10.191,-4.402 c -3.102,4.402 -8.195,5.097 -12.695,5.097 -0.598,0 -1.7,0 -3.094,0.098 l -38.68,12.195 -54.363,-17.988 52.465,-19.285 30.484,12.793 c 3.496,-0.207 6.594,-0.305 8.992,-0.305 l -43.273,-18.984 -67.059,26.777 73.254,23.789 64.16,-19.785"
         style="fill:#006436;fill-opacity:1;fill-rule:nonzero;stroke:none"
         transform="matrix(0.13333333,0,0,-0.13333333,0,209.68)" />
      <path
         id="path64"
         d="m 598.199,600.207 c -0.402,0.098 -0.902,0.195 -1.402,0.195 -1.199,0 -2.399,-0.3 -3.399,-0.703 -0.699,5.403 -0.898,12.297 -1,18.692 -0.097,3.203 -0.195,6.203 -0.296,8.496 -0.204,3.301 -0.801,5.293 -1.797,6.191 -0.703,0.606 -1.903,1.008 -5.203,1.008 -0.801,0 -2.399,0 -4.395,0.098 -11.394,0.3 -37.977,1.394 -41.574,1.504 -0.598,0.097 -1.199,0.398 -1.598,0.789 -0.5,0.507 -0.703,1.105 -0.703,1.808 0,0.692 0.301,1.192 0.801,1.59 0.504,0.508 1.097,0.703 1.699,0.703 0.398,0 39.977,-1.699 45.77,-1.699 2.003,0 3.703,-0.098 5.203,-0.594 3.894,-1.105 6.293,-4.004 6.691,-11.094 0.098,-2.402 0.199,-5.402 0.199,-8.703 0.203,-6.093 0.403,-13.183 1.004,-18.281"
         style="fill:#006436;fill-opacity:1;fill-rule:nonzero;stroke:none"
         transform="matrix(0.13333333,0,0,-0.13333333,0,209.68)" />
      <path
         id="path65"
         d="m 752.563,585.715 c 0.703,-0.703 1.601,-1.199 2.5,-1.602 -2.395,-3.398 -2.598,-12.793 -2.598,-25.683 v -5.801 c -3.102,0.301 -4.992,0.801 -5.793,1.199 1.496,3.902 2.492,8.594 0.297,16.902 -1.699,6.489 1.297,12.68 4.996,14.985 h 0.598"
         style="fill:#006436;fill-opacity:1;fill-rule:nonzero;stroke:none"
         transform="matrix(0.13333333,0,0,-0.13333333,0,209.68)" />
      <path
         id="path66"
         d="m 758.863,596.41 c 2.996,0 5.395,-2.004 5.395,-4.601 0,-2.5 -2.399,-4.598 -5.395,-4.598 -3,0 -5.394,2.098 -5.394,4.598 0,2.597 2.394,4.601 5.394,4.601"
         style="fill:#006436;fill-opacity:1;fill-rule:nonzero;stroke:none"
         transform="matrix(0.13333333,0,0,-0.13333333,0,209.68)" />
      <path
         id="path67"
         d="m 762.559,567.621 c 0.8,-4.793 1.601,-9.891 3,-13.891 -3.801,-0.89 -7.196,-1.101 -9.196,-1.101 v 5.801 c 0,7.39 0,21.183 1.899,23.39 0.101,0.098 0.199,0.293 0.301,0.399 1.898,-1.199 3.097,-9.102 3.996,-14.598"
         style="fill:#006436;fill-opacity:1;fill-rule:nonzero;stroke:none"
         transform="matrix(0.13333333,0,0,-0.13333333,0,209.68)" />
      <path
         id="path68"
         d="m 775.25,557.23 c -1.898,-1.089 -3.996,-1.89 -5.996,-2.5 -1.301,3.7 -2.098,8.7 -2.899,13.59 -1.097,6.801 -2.097,12.493 -4.199,15.598 0.403,0.098 0.703,0.195 0.903,0.402 2.996,-2.207 3.5,-3.8 4.199,-5.8 0.297,-0.997 0.695,-2.004 1.297,-3.098 1.601,-4.5 5.5,-14.992 6.695,-18.192"
         style="fill:#006436;fill-opacity:1;fill-rule:nonzero;stroke:none"
         transform="matrix(0.13333333,0,0,-0.13333333,0,209.68)" />
      <path
         id="path69"
         d="m 769.254,554.73 c -1.301,3.7 -2.098,8.7 -2.899,13.59 -1.097,6.801 -2.097,12.493 -4.199,15.598 0.403,0.098 0.703,0.195 0.903,0.402 2.996,-2.207 3.5,-3.8 4.199,-5.8 0.297,-0.997 0.695,-2.004 1.297,-3.098 1.601,-4.5 5.5,-14.992 6.695,-18.192 -1.898,-1.089 -3.996,-1.89 -5.996,-2.5 z m -12.891,-2.101 v 5.801 c 0,7.39 0,21.183 1.899,23.39 0.101,0.098 0.199,0.293 0.301,0.399 1.898,-1.199 3.097,-9.102 3.996,-14.598 0.8,-4.793 1.601,-9.891 3,-13.891 -3.801,-0.89 -7.196,-1.101 -9.196,-1.101 z m -2.894,39.18 c 0,2.597 2.394,4.601 5.394,4.601 2.996,0 5.395,-2.004 5.395,-4.601 0,-2.5 -2.399,-4.598 -5.395,-4.598 -3,0 -5.394,2.098 -5.394,4.598 z m -1.004,-33.379 v -5.801 c -3.102,0.301 -4.992,0.801 -5.793,1.199 1.496,3.902 2.492,8.594 0.297,16.902 -1.699,6.489 1.297,12.68 4.996,14.985 h 0.598 c 0.703,-0.703 1.601,-1.199 2.5,-1.602 -2.395,-3.398 -2.598,-12.793 -2.598,-25.683 z m 2.398,48.371 c -0.199,3.699 -0.297,7.793 -0.398,11.59 -0.102,3.203 -0.203,6.203 -0.301,8.496 -0.199,3.301 -0.801,5.293 -1.801,6.191 -0.699,0.606 -1.894,1.008 -5.195,1.008 -0.801,0 -2.398,0 -4.395,0.098 -11.394,0.3 -37.976,1.394 -41.578,1.504 -0.597,0.097 -1.195,0.398 -1.593,0.789 -0.504,0.507 -0.707,1.105 -0.707,1.808 0,0.692 0.304,1.192 0.8,1.59 0.5,0.508 1.102,0.703 1.7,0.703 0.402,0 39.976,-1.699 45.773,-1.699 1.996,0 3.695,-0.098 5.195,-0.594 3.903,-1.105 6.297,-4.004 6.7,-11.094 0.097,-2.402 0.199,-5.402 0.199,-8.703 0.203,-6.093 0.402,-13.183 0.996,-18.281 -0.395,0.098 -0.899,0.195 -1.395,0.195 -1.203,0 -2.398,-0.3 -3.398,-0.703 0,0.305 -0.106,0.703 -0.106,1.106 -0.199,1.797 -0.394,3.797 -0.496,5.996 z m -13.789,18.387 8.992,3.996 c 0.102,-0.696 0.204,-1.399 0.204,-2.493 0.199,-2.207 0.296,-5.3 0.296,-8.398 0,-0.996 0.098,-1.895 0.098,-2.898 -3.098,3.496 -6.293,6.699 -9.59,9.793 z m -64.558,-24.286 c -11.797,0 -23.789,-4.394 -35.879,-12.89 3.093,14.59 11.492,27.781 18.988,35.078 l 6.094,-2.395 c -7.098,-5.398 -10.492,-12.097 -12.992,-17.695 28.582,12.297 55.867,-0.496 62.961,-11.191 7.593,14.894 17.589,17.285 29.484,15.293 -3.301,5.5 -7.496,10.39 -11.793,14.687 l 3.894,1.699 c 4.997,-4.597 9.399,-8.992 13.59,-14.394 0.106,-2.196 0.2,-4.297 0.403,-6.289 -11.594,-0.203 -26.582,-3.203 -34.078,-22.188 -6.997,8.594 -21.387,20.285 -40.672,20.285 z m -43.879,37.176 73.258,23.789 64.16,-19.785 -10.192,-4.402 c -3.101,4.402 -8.199,5.097 -12.695,5.097 -0.602,0 -1.699,0 -3.098,0.098 l -38.675,12.195 -54.364,-17.988 52.465,-19.285 30.481,12.793 c 3.5,-0.207 6.593,-0.305 8.992,-0.305 l -43.274,-18.984 z m 155.207,-72.547 c -0.5,2.297 -3,3 -5.496,3.688 -1.297,0.402 -2.602,0.801 -3.598,1.402 -6.098,4.098 -6.895,6.5 -7.797,9.098 -0.797,2.199 -1.5,4.394 -4.699,6.992 1.203,1.504 1.898,3.203 1.898,5.098 0,2.804 -1.496,5.293 -3.695,6.796 -0.898,4.895 -1.098,13.79 -1.297,19.993 -0.101,3.289 -0.101,6.289 -0.301,8.789 -0.101,2.801 -0.597,4.902 -1.199,6.797 l 19.586,8.593 -75.449,23.086 -84.551,-27.383 34.477,-13.886 c -8.493,-8.703 -17.586,-24.192 -19.785,-40.781 l -0.602,-4.7 3.695,2.903 c 12.793,9.89 25.387,14.89 37.485,14.89 19.984,0 34.277,-13.496 39.672,-21.484 l 2.195,-3.402 1.301,3.902 c 6.097,19.785 20.089,22.879 31.98,22.988 0.106,-0.508 0.106,-1.008 0.199,-1.504 -1.394,-1.496 -2.297,-3.398 -2.297,-5.597 0,-0.996 0.2,-1.797 0.5,-2.696 -5.093,-2.996 -8.992,-10.898 -6.796,-19.394 1.902,-7.188 1.101,-11.188 -0.497,-14.879 -0.402,-1.012 -0.3,-2 0.297,-2.899 1.7,-2.711 7.696,-3.113 11.094,-3.3 0.098,0 0.098,0 0.098,0 0,0 0,0 0.101,0 h 0.903 c 4.297,0 18.789,0.699 28.879,10.089 3.101,2.801 4.199,4.899 3.699,6.801"
         style="fill:#181210;fill-opacity:1;fill-rule:nonzero;stroke:none"
         transform="matrix(0.13333333,0,0,-0.13333333,0,209.68)" />
      <path
         id="path70"
         d="m 751.266,602.805 c -11.594,-0.203 -26.582,-3.203 -34.078,-22.188 -6.997,8.594 -21.387,20.285 -40.672,20.285 -11.797,0 -23.789,-4.394 -35.879,-12.89 3.093,14.59 11.492,27.781 18.988,35.078 l 6.094,-2.395 c -7.098,-5.398 -10.492,-12.097 -12.992,-17.695 28.582,12.297 55.867,-0.496 62.961,-11.191 7.593,14.894 17.589,17.285 29.484,15.293 -3.301,5.5 -7.496,10.39 -11.793,14.687 l 3.894,1.699 c 4.997,-4.597 9.399,-8.992 13.59,-14.394 0.106,-2.196 0.2,-4.297 0.403,-6.289"
         style="fill:#006436;fill-opacity:1;fill-rule:nonzero;stroke:none"
         transform="matrix(0.13333333,0,0,-0.13333333,0,209.68)" />
      <path
         id="path71"
         d="m 770.055,642.082 -10.192,-4.402 c -3.101,4.402 -8.199,5.097 -12.695,5.097 -0.602,0 -1.699,0 -3.098,0.098 l -38.675,12.195 -54.364,-17.988 52.465,-19.285 30.481,12.793 c 3.5,-0.207 6.593,-0.305 8.992,-0.305 l -43.274,-18.984 -67.058,26.777 73.258,23.789 64.16,-19.785"
         style="fill:#006436;fill-opacity:1;fill-rule:nonzero;stroke:none"
         transform="matrix(0.13333333,0,0,-0.13333333,0,209.68)" />
      <path
         id="path72"
         d="m 760.258,600.207 c -0.395,0.098 -0.899,0.195 -1.395,0.195 -1.203,0 -2.398,-0.3 -3.398,-0.703 -0.699,5.403 -0.899,12.297 -1,18.692 -0.102,3.203 -0.203,6.203 -0.301,8.496 -0.199,3.301 -0.801,5.293 -1.801,6.191 -0.699,0.606 -1.894,1.008 -5.195,1.008 -0.801,0 -2.398,0 -4.395,0.098 -11.394,0.3 -37.976,1.394 -41.578,1.504 -0.597,0.097 -1.195,0.398 -1.593,0.789 -0.504,0.507 -0.707,1.105 -0.707,1.808 0,0.692 0.304,1.192 0.8,1.59 0.5,0.508 1.102,0.703 1.7,0.703 0.402,0 39.976,-1.699 45.773,-1.699 1.996,0 3.695,-0.098 5.195,-0.594 3.903,-1.105 6.297,-4.004 6.7,-11.094 0.097,-2.402 0.199,-5.402 0.199,-8.703 0.203,-6.093 0.402,-13.183 0.996,-18.281"
         style="fill:#006436;fill-opacity:1;fill-rule:nonzero;stroke:none"
         transform="matrix(0.13333333,0,0,-0.13333333,0,209.68)" />
      <path
         id="path73"
         d="m 914.629,585.715 c 0.699,-0.703 1.601,-1.199 2.5,-1.602 -2.399,-3.398 -2.598,-12.793 -2.598,-25.683 v -5.801 c -3.101,0.301 -5,0.801 -5.797,1.199 1.5,3.902 2.496,8.594 0.297,16.902 -1.695,6.489 1.301,12.68 4.996,14.985 h 0.602"
         style="fill:#006436;fill-opacity:1;fill-rule:nonzero;stroke:none"
         transform="matrix(0.13333333,0,0,-0.13333333,0,209.68)" />
      <path
         id="path74"
         d="m 920.93,596.41 c 2.996,0 5.394,-2.004 5.394,-4.601 0,-2.5 -2.398,-4.598 -5.394,-4.598 -3,0 -5.403,2.098 -5.403,4.598 0,2.597 2.403,4.601 5.403,4.601"
         style="fill:#006436;fill-opacity:1;fill-rule:nonzero;stroke:none"
         transform="matrix(0.13333333,0,0,-0.13333333,0,209.68)" />
      <path
         id="path75"
         d="m 924.625,567.621 c 0.801,-4.793 1.598,-9.891 2.996,-13.891 -3.797,-0.89 -7.195,-1.101 -9.191,-1.101 v 5.801 c 0,7.39 0,21.183 1.898,23.39 0.098,0.098 0.199,0.293 0.297,0.399 1.898,-1.199 3.102,-9.102 4,-14.598"
         style="fill:#006436;fill-opacity:1;fill-rule:nonzero;stroke:none"
         transform="matrix(0.13333333,0,0,-0.13333333,0,209.68)" />
      <path
         id="path76"
         d="m 937.313,557.23 c -1.899,-1.089 -3.993,-1.89 -5.997,-2.5 -1.296,3.7 -2.097,8.7 -2.894,13.59 -1.098,6.801 -2.098,12.493 -4.199,15.598 0.402,0.098 0.699,0.195 0.898,0.402 3,-2.207 3.5,-3.8 4.199,-5.8 0.297,-0.997 0.7,-2.004 1.301,-3.098 1.598,-4.5 5.496,-14.992 6.692,-18.192"
         style="fill:#006436;fill-opacity:1;fill-rule:nonzero;stroke:none"
         transform="matrix(0.13333333,0,0,-0.13333333,0,209.68)" />
      <path
         id="path77"
         d="m 931.316,554.73 c -1.296,3.7 -2.097,8.7 -2.894,13.59 -1.098,6.801 -2.098,12.493 -4.199,15.598 0.402,0.098 0.699,0.195 0.898,0.402 3,-2.207 3.5,-3.8 4.199,-5.8 0.297,-0.997 0.7,-2.004 1.301,-3.098 1.598,-4.5 5.496,-14.992 6.692,-18.192 -1.899,-1.089 -3.993,-1.89 -5.997,-2.5 z m -12.886,-2.101 v 5.801 c 0,7.39 0,21.183 1.898,23.39 0.098,0.098 0.199,0.293 0.297,0.399 1.898,-1.199 3.102,-9.102 4,-14.598 0.801,-4.793 1.598,-9.891 2.996,-13.891 -3.797,-0.89 -7.195,-1.101 -9.191,-1.101 z m -2.903,39.18 c 0,2.597 2.403,4.601 5.403,4.601 2.996,0 5.394,-2.004 5.394,-4.601 0,-2.5 -2.398,-4.598 -5.394,-4.598 -3,0 -5.403,2.098 -5.403,4.598 z m -0.996,-33.379 v -5.801 c -3.101,0.301 -5,0.801 -5.797,1.199 1.5,3.902 2.496,8.594 0.297,16.902 -1.695,6.489 1.301,12.68 4.996,14.985 h 0.602 c 0.699,-0.703 1.601,-1.199 2.5,-1.602 -2.399,-3.398 -2.598,-12.793 -2.598,-25.683 z m 2.399,48.371 c -0.2,3.699 -0.305,7.793 -0.403,11.59 -0.101,3.203 -0.199,6.203 -0.297,8.496 -0.199,3.301 -0.8,5.293 -1.8,6.191 -0.7,0.606 -1.903,1.008 -5.196,1.008 -0.8,0 -2.398,0 -4.398,0.098 -11.395,0.3 -37.977,1.394 -41.574,1.504 -0.602,0.097 -1.199,0.398 -1.602,0.789 -0.5,0.507 -0.699,1.105 -0.699,1.808 0,0.692 0.305,1.192 0.801,1.59 0.5,0.508 1.097,0.703 1.699,0.703 0.402,0 39.977,-1.699 45.773,-1.699 1.996,0 3.696,-0.098 5.196,-0.594 3.894,-1.105 6.297,-4.004 6.699,-11.094 0.098,-2.402 0.199,-5.402 0.199,-8.703 0.195,-6.093 0.395,-13.183 0.996,-18.281 -0.398,0.098 -0.898,0.195 -1.394,0.195 -1.203,0 -2.407,-0.3 -3.403,-0.703 0,0.305 -0.101,0.703 -0.101,1.106 -0.199,1.797 -0.395,3.797 -0.496,5.996 z m -13.793,18.387 8.992,3.996 c 0.101,-0.696 0.199,-1.399 0.199,-2.493 0.199,-2.207 0.305,-5.3 0.305,-8.398 0,-0.996 0.097,-1.895 0.097,-2.898 -3.097,3.496 -6.292,6.699 -9.593,9.793 z m -64.563,-24.286 c -11.793,0 -23.785,-4.394 -35.875,-12.89 3.098,14.59 11.489,27.781 18.989,35.078 l 6.093,-2.395 c -7.093,-5.398 -10.492,-12.097 -12.992,-17.695 28.586,12.297 55.871,-0.496 62.965,-11.191 7.594,14.894 17.59,17.285 29.48,15.293 -3.296,5.5 -7.492,10.39 -11.796,14.687 l 3.902,1.699 c 4.996,-4.597 9.394,-8.992 13.59,-14.394 0.101,-2.196 0.199,-4.297 0.398,-6.289 -11.59,-0.203 -26.582,-3.203 -34.074,-22.188 -6.996,8.594 -21.387,20.285 -40.68,20.285 z m -43.871,37.176 73.258,23.789 64.156,-19.785 -10.191,-4.402 c -3.098,4.402 -8.196,5.097 -12.692,5.097 -0.601,0 -1.699,0 -3.101,0.098 l -38.672,12.195 -54.371,-17.988 52.473,-19.285 30.476,12.793 c 3.504,-0.207 6.598,-0.305 8.996,-0.305 l -43.273,-18.984 z m 155.203,-72.547 c -0.496,2.297 -2.996,3 -5.492,3.688 -1.305,0.402 -2.601,0.801 -3.598,1.402 -6.097,4.098 -6.898,6.5 -7.796,9.098 -0.801,2.199 -1.5,4.394 -4.7,6.992 1.2,1.504 1.899,3.203 1.899,5.098 0,2.804 -1.496,5.293 -3.696,6.796 -0.898,4.895 -1.097,13.79 -1.296,19.993 -0.106,3.289 -0.106,6.289 -0.305,8.789 -0.098,2.801 -0.598,4.902 -1.195,6.797 l 19.586,8.593 -75.458,23.086 -84.542,-27.383 34.476,-13.886 c -8.492,-8.703 -17.59,-24.192 -19.785,-40.781 l -0.602,-4.7 3.696,2.903 c 12.793,9.89 25.386,14.89 37.476,14.89 19.989,0 34.281,-13.496 39.68,-21.484 l 2.195,-3.402 1.297,3.902 c 6.102,19.785 20.09,22.879 31.984,22.988 0.098,-0.508 0.098,-1.008 0.2,-1.504 -1.403,-1.496 -2.297,-3.398 -2.297,-5.597 0,-0.996 0.199,-1.797 0.496,-2.696 -5.094,-2.996 -8.992,-10.898 -6.793,-19.394 1.898,-7.188 1.102,-11.188 -0.5,-14.879 -0.398,-1.012 -0.301,-2 0.301,-2.899 1.699,-2.711 7.695,-3.113 11.093,-3.3 0.098,0 0.098,0 0.098,0 0,0 0,0 0.098,0 h 0.902 c 4.297,0 18.789,0.699 28.883,10.089 3.098,2.801 4.199,4.899 3.695,6.801"
         style="fill:#181210;fill-opacity:1;fill-rule:nonzero;stroke:none"
         transform="matrix(0.13333333,0,0,-0.13333333,0,209.68)" />
      <path
         id="path78"
         d="m 913.328,602.805 c -11.59,-0.203 -26.582,-3.203 -34.074,-22.188 -6.996,8.594 -21.387,20.285 -40.68,20.285 -11.793,0 -23.785,-4.394 -35.875,-12.89 3.098,14.59 11.489,27.781 18.989,35.078 l 6.093,-2.395 c -7.093,-5.398 -10.492,-12.097 -12.992,-17.695 28.586,12.297 55.871,-0.496 62.965,-11.191 7.594,14.894 17.59,17.285 29.48,15.293 -3.296,5.5 -7.492,10.39 -11.796,14.687 l 3.902,1.699 c 4.996,-4.597 9.394,-8.992 13.59,-14.394 0.101,-2.196 0.199,-4.297 0.398,-6.289"
         style="fill:#006436;fill-opacity:1;fill-rule:nonzero;stroke:none"
         transform="matrix(0.13333333,0,0,-0.13333333,0,209.68)" />
      <path
         id="path79"
         d="m 932.117,642.082 -10.191,-4.402 c -3.098,4.402 -8.196,5.097 -12.692,5.097 -0.601,0 -1.699,0 -3.101,0.098 l -38.672,12.195 -54.371,-17.988 52.473,-19.285 30.476,12.793 c 3.504,-0.207 6.598,-0.305 8.996,-0.305 l -43.273,-18.984 -67.059,26.777 73.258,23.789 64.156,-19.785"
         style="fill:#006436;fill-opacity:1;fill-rule:nonzero;stroke:none"
         transform="matrix(0.13333333,0,0,-0.13333333,0,209.68)" />
      <path
         id="path80"
         d="m 922.324,600.207 c -0.398,0.098 -0.898,0.195 -1.394,0.195 -1.203,0 -2.407,-0.3 -3.403,-0.703 -0.703,5.403 -0.902,12.297 -1,18.692 -0.101,3.203 -0.199,6.203 -0.297,8.496 -0.199,3.301 -0.8,5.293 -1.8,6.191 -0.7,0.606 -1.903,1.008 -5.196,1.008 -0.8,0 -2.398,0 -4.398,0.098 -11.395,0.3 -37.977,1.394 -41.574,1.504 -0.602,0.097 -1.199,0.398 -1.602,0.789 -0.5,0.507 -0.699,1.105 -0.699,1.808 0,0.692 0.305,1.192 0.801,1.59 0.5,0.508 1.097,0.703 1.699,0.703 0.402,0 39.977,-1.699 45.773,-1.699 1.996,0 3.696,-0.098 5.196,-0.594 3.894,-1.105 6.297,-4.004 6.699,-11.094 0.098,-2.402 0.199,-5.402 0.199,-8.703 0.195,-6.093 0.395,-13.183 0.996,-18.281"
         style="fill:#006436;fill-opacity:1;fill-rule:nonzero;stroke:none"
         transform="matrix(0.13333333,0,0,-0.13333333,0,209.68)" />
      <path
         id="path81"
         d="m 973.48,722.824 h -79.183 l 79.183,201.465 z m 0,-31.484 c 0,-56.27 -11.406,-112.215 -33.007,-166 H 474.684 c -21.602,53.785 -32.973,109.73 -32.973,166 v 27.578 H 973.48 Z M 709.84,253.301 815.152,521.539 H 938.883 C 896.719,418.82 817.363,324.672 709.84,253.301 Z m 52.64,268.238 h 48.489 L 718.828,287.102 Z m -54.371,-269.309 32.11,269.309 h 18.39 L 708.422,252.41 c -0.102,0 -0.203,-0.109 -0.313,-0.18 z M 678.84,521.539 h 57.473 L 707.629,280.609 Z M 706.73,252.41 656.648,521.539 h 18.286 L 707.043,252.23 c 0,0.071 -0.211,0.18 -0.313,0.18 z M 604.184,521.539 h 48.492 l 43.652,-234.437 z m -127.914,0 H 600.105 L 705.414,253.301 C 597.789,324.672 518.539,418.82 476.27,521.539 Z m -34.559,402.75 79.246,-201.465 h -79.246 z m 135.102,4.805 38.363,-206.27 h -90.035 l -81.153,206.27 z m 49.457,0.418 24.609,-206.688 h -31.695 l -38.571,206.688 z m 158.71,-0.418 -24.574,-206.27 h -105.66 l -24.57,206.27 z m 49.563,0.418 -38.469,-206.688 h -31.761 l 24.675,206.688 z m 136.617,-0.418 -81.043,-206.27 h -90.035 l 38.363,206.27 z M 430.613,940.707 V 691.34 c 0,-91.621 27.477,-180 81.844,-262.731 46.973,-71.648 113.016,-136.418 190.887,-187.3 l 4.285,-2.797 4.184,2.797 c 77.968,50.882 143.914,115.652 190.882,187.3 54.473,82.731 81.95,171.11 81.95,262.731 V 940.707 H 430.613"
         style="fill:#181210;fill-opacity:1;fill-rule:nonzero;stroke:none"
         transform="matrix(0.13333333,0,0,-0.13333333,0,209.68)" />
      <path
         id="path82"
         d="m 456.531,1093.59 c -145.508,-0.44 -217.957,16.67 -217.957,16.67 l -0.058,220.88 60.754,0.52 -0.52,-183.65 c 34.883,-3.96 86.688,-7.38 157.781,-6.87 85.727,-0.51 139.094,4.86 156.731,6.87 v 183.13 l 61.211,0.52 v -221.4 c 0,0 -69.563,-16.67 -217.942,-17.11 v 0.44"
         style="fill:#c39207;fill-opacity:1;fill-rule:nonzero;stroke:none"
         transform="matrix(0.13333333,0,0,-0.13333333,0,209.68)" />
      <path
         id="path83"
         d="m 984.082,1093.15 c 124.878,1.92 189.018,17.11 189.018,17.11 v 207.17 c 0,0 -71.46,17.15 -217.932,16.68 -147.961,0.47 -217.031,-16.68 -217.031,-16.68 v -207.17 c 0,0 63.66,-14.68 189.09,-17.11 0,-36.36 -0.481,-18.69 -2.414,-58.28 l 63.125,0.49 c -3.407,35.76 -3.856,26.35 -3.856,57.79 z m 128.278,186.08 v -131.76 c -28.94,-2.92 -71.97,-6.33 -127.829,-7.3 l 0.489,45.78 -57.293,-0.46 v -45.32 c -65.122,1.44 -111.211,5.41 -127.864,7.3 v 131.76 c 17.637,1.95 70.52,6.35 156.25,5.96 70.017,0.39 122.447,-2.03 156.247,-5.96 v 0"
         style="fill:#c39207;fill-opacity:1;fill-rule:nonzero;stroke:none"
         transform="matrix(0.13333333,0,0,-0.13333333,0,209.68)" />
      <path
         id="path84"
         d="m 1481.56,1093.59 -61.7,-0.44 0.5,190.51 c -131.76,-1.52 -187.59,-17.16 -187.59,-17.16 v 48.48 c 0,0 70.06,16.68 218.45,16.16 147.47,0.52 217.93,-16.16 217.93,-16.16 v -48.48 c 0,0 -56.79,15.17 -187.59,15.17 v -188.08"
         style="fill:#006436;fill-opacity:1;fill-rule:nonzero;stroke:none"
         transform="matrix(0.13333333,0,0,-0.13333333,0,209.68)" />
      <path
         id="path85"
         d="m 2134.51,1093.59 61.26,0.5 v 73.98 c -19.08,14.71 -37.2,23.04 -55.9,28.88 37.35,2.93 55.9,6.86 55.9,6.86 v 111.67 c 0,0 -73.96,17.18 -217.42,16.67 -144.54,0.51 -218.54,-16.67 -218.54,-16.67 v -79.34 c -20.12,0 -42.87,0.54 -80.19,3.44 v -55.29 c 0,0 33.67,3.87 80.68,3.33 l -0.49,-94.03 61.28,0.5 v 93.06 c 258.55,-0.43 306.14,-32.3 313.42,-39.68 z m 0,183.72 v -34.34 c -33.78,-3.39 -85.22,-6.83 -156.16,-7.28 h -157.26 v 41.62 c 17.14,1.92 68.56,7.36 157.26,6.9 70.94,0.46 122.38,-3.03 156.16,-6.9 v 0"
         style="fill:#006436;fill-opacity:1;fill-rule:nonzero;stroke:none"
         transform="matrix(0.13333333,0,0,-0.13333333,0,209.68)" />
    </g>
  </g>
</svg>
